<?xml version="1.0" encoding="iso-8859-1"?>
<!-- Uploaded to: SVG Repo, www.svgrepo.com, Generator: SVG Repo Mixer Tools -->
<svg height="800px" width="800px" version="1.1" id="Layer_1" xmlns="http://www.w3.org/2000/svg" xmlns:xlink="http://www.w3.org/1999/xlink" 
	 viewBox="0 0 512 512" xml:space="preserve">
<g transform="translate(1)">
	<path style="fill:#FFE100;" d="M64.707,221.867H408.6l51.2,42.667L408.6,307.2H64.707c-8.533,0-14.507-5.973-14.507-14.507V235.52
		C50.2,227.84,56.173,221.867,64.707,221.867"/>
	<polygon style="fill:#FFA800;" points="383,307.2 408.6,307.2 459.8,264.533 408.6,221.867 383,221.867 434.2,264.533 	"/>
	<path style="fill:#FFFFFF;" d="M64.707,307.2h25.6c-8.533,0-14.507-5.973-14.507-14.507V235.52c0-7.68,5.973-13.653,14.507-13.653
		h-25.6c-8.533,0-14.507,5.973-14.507,14.507v57.173C50.2,301.227,56.173,307.2,64.707,307.2"/>
	<g>
		<path style="fill:#FFE100;" d="M323.267,503.467H203.8c0-18.773,15.36-34.133,34.133-34.133h51.2
			C307.907,469.333,323.267,484.693,323.267,503.467"/>
		<path style="fill:#FFE100;" d="M445.293,153.6H101.4l-51.2-42.667l51.2-42.667h343.893c8.533,0,14.507,5.973,14.507,14.507v57.173
			C459.8,147.627,453.827,153.6,445.293,153.6"/>
	</g>
	<polygon style="fill:#FFFFFF;" points="127,68.267 101.4,68.267 50.2,110.933 101.4,153.6 127,153.6 75.8,110.933 	"/>
	<path style="fill:#FFA800;" d="M445.293,68.267h-25.6c8.533,0,14.507,5.973,14.507,14.507v57.173
		c0,7.68-5.973,14.507-14.507,14.507h25.6c7.68,0,14.507-5.973,14.507-14.507V82.773C459.8,74.24,453.827,68.267,445.293,68.267"/>
	<g>
		<polygon style="fill:#FFE100;" points="246.467,221.867 280.6,221.867 280.6,153.6 246.467,153.6 		"/>
		<polygon style="fill:#FFE100;" points="246.467,469.333 280.6,469.333 280.6,307.2 246.467,307.2 		"/>
		<path style="fill:#FFE100;" d="M280.6,68.267V25.6c0-9.387-7.68-17.067-17.067-17.067c-9.387,0-17.067,7.68-17.067,17.067v42.667
			H280.6z"/>
	</g>
	<path d="M323.267,512L323.267,512H203.8c-5.12,0-8.533-3.413-8.533-8.533c0-23.893,18.773-42.667,42.667-42.667h51.2
		c23.04,0,41.813,17.92,42.667,40.96c0,0.853,0,0.853,0,1.707C331.8,508.587,328.387,512,323.267,512z M214.04,494.933h99.84
		c-3.413-10.24-12.8-17.067-23.893-17.067h-51.2C226.84,477.867,217.453,484.693,214.04,494.933z"/>
	<path d="M445.293,162.133H101.4c-1.707,0-4.267-0.853-5.12-1.707l-51.2-42.667c-2.56-1.707-3.413-4.267-3.413-6.827
		c0-2.56,0.853-5.12,3.413-6.827l51.2-42.667c0.853-0.853,3.413-1.707,5.12-1.707h343.893c12.8,0,23.04,10.24,23.04,23.04v57.173
		C468.333,151.893,458.093,162.133,445.293,162.133z M104.813,145.067h341.333c3.413,0,5.973-2.56,5.973-5.973v-56.32
		c-0.853-3.413-3.413-5.973-6.827-5.973H103.96L63,110.933L104.813,145.067z"/>
	<path d="M408.6,315.733H64.707c-12.8,0-23.04-10.24-23.04-23.04V235.52c0-12.8,10.24-23.04,23.04-23.04H408.6
		c1.707,0,4.267,0.853,5.12,1.707l51.2,42.667c1.707,1.707,3.413,4.267,3.413,6.827s-0.853,5.12-3.413,6.827l-51.2,42.667
		C412.867,314.88,410.307,315.733,408.6,315.733z M64.707,230.4c-3.413,0-5.973,2.56-5.973,5.973v57.173
		c0,2.56,2.56,5.12,5.973,5.12H406.04L447,264.533L406.04,230.4H64.707z"/>
	<path d="M280.6,230.4h-34.133c-5.12,0-8.533-3.413-8.533-8.533V153.6c0-5.12,3.413-8.533,8.533-8.533H280.6
		c5.12,0,8.533,3.413,8.533,8.533v68.267C289.133,226.987,285.72,230.4,280.6,230.4z M255,213.333h17.067v-51.2H255V213.333z"/>
	<path d="M280.6,477.867h-34.133c-5.12,0-8.533-3.413-8.533-8.533V307.2c0-5.12,3.413-8.533,8.533-8.533H280.6
		c5.12,0,8.533,3.413,8.533,8.533v162.133C289.133,474.453,285.72,477.867,280.6,477.867z M255,460.8h17.067V315.733H255V460.8z"/>
	<path d="M280.6,76.8h-34.133c-5.12,0-8.533-3.413-8.533-8.533V25.6c0-14.507,11.093-25.6,25.6-25.6c14.507,0,25.6,11.093,25.6,25.6
		v42.667C289.133,73.387,285.72,76.8,280.6,76.8z M255,59.733h17.067V25.6c0-5.12-3.413-8.533-8.533-8.533
		c-5.12,0-8.533,3.413-8.533,8.533V59.733z"/>
	<path d="M195.267,119.467h-85.333c-5.12,0-8.533-3.413-8.533-8.533s3.413-8.533,8.533-8.533h85.333c5.12,0,8.533,3.413,8.533,8.533
		S200.387,119.467,195.267,119.467z"/>
	<path d="M408.6,119.467h-76.8c-5.12,0-8.533-3.413-8.533-8.533s3.413-8.533,8.533-8.533h76.8c5.12,0,8.533,3.413,8.533,8.533
		S413.72,119.467,408.6,119.467z"/>
	<path d="M280.6,119.467h-34.133c-5.12,0-8.533-3.413-8.533-8.533s3.413-8.533,8.533-8.533H280.6c5.12,0,8.533,3.413,8.533,8.533
		S285.72,119.467,280.6,119.467z"/>
	<path d="M186.733,273.067H101.4c-5.12,0-8.533-3.413-8.533-8.533c0-5.12,3.413-8.533,8.533-8.533h85.333
		c5.12,0,8.533,3.413,8.533,8.533C195.267,269.653,191.853,273.067,186.733,273.067z"/>
	<path d="M400.067,273.067h-76.8c-5.12,0-8.533-3.413-8.533-8.533c0-5.12,3.413-8.533,8.533-8.533h76.8
		c5.12,0,8.533,3.413,8.533,8.533C408.6,269.653,405.187,273.067,400.067,273.067z"/>
	<path d="M272.067,273.067h-34.133c-5.12,0-8.533-3.413-8.533-8.533c0-5.12,3.413-8.533,8.533-8.533h34.133
		c5.12,0,8.533,3.413,8.533,8.533C280.6,269.653,277.187,273.067,272.067,273.067z"/>
</g>
</svg>